<svg width="89" height="18" viewBox="0 0 89 18" fill="none" xmlns="http://www.w3.org/2000/svg">
<path d="M12.648 17H0.552V1.064H12.264V3.848H3.792V7.256H11.592V10.064H3.792V14.168H12.648V17Z" fill="#FDF100"/>
<path d="M19.0374 10.832H13.0854V8.408H19.0374V10.832ZM35.508 17H32.388V6.08L29.412 17H26.1L23.148 6.128V17H20.052V1.064H24.948L27.828 12.752L30.708 1.064H35.508V17ZM42.6195 14.696C44.5155 14.696 45.4755 13.496 45.4755 11.096C45.4755 8.696 44.5155 7.52 42.6195 7.52C40.7235 7.52 39.7635 8.696 39.7635 11.096C39.7635 13.496 40.7235 14.696 42.6195 14.696ZM42.6195 17.312C38.8035 17.312 36.5475 14.768 36.5475 11.096C36.5475 7.352 38.8755 4.88 42.6195 4.88C46.3155 4.88 48.6195 7.328 48.6195 11.096C48.6195 14.84 46.2915 17.312 42.6195 17.312ZM56.445 12.296V9.224H59.349V12.584C59.349 15.08 57.909 17.312 54.573 17.312C51.117 17.312 49.749 15.104 49.749 12.56V2H52.821V5.192H59.349V7.4H52.821V12.248C52.821 13.736 53.349 14.6 54.621 14.6C55.869 14.6 56.445 13.76 56.445 12.296ZM63.816 17H60.696V5.192H63.816V17ZM63.816 3.776H60.696V0.871999H63.816V3.776ZM71.0492 14.696C72.9452 14.696 73.9052 13.496 73.9052 11.096C73.9052 8.696 72.9452 7.52 71.0492 7.52C69.1532 7.52 68.1932 8.696 68.1932 11.096C68.1932 13.496 69.1532 14.696 71.0492 14.696ZM71.0492 17.312C67.2332 17.312 64.9772 14.768 64.9772 11.096C64.9772 7.352 67.3052 4.88 71.0492 4.88C74.7452 4.88 77.0492 7.328 77.0492 11.096C77.0492 14.84 74.7212 17.312 71.0492 17.312ZM88.8827 17H85.7387V9.848C85.7387 8.024 85.2107 7.52 83.7227 7.52C82.0907 7.52 81.2987 8.432 81.2987 10.232V17H78.1787V5.192H81.1547V6.92C81.8747 5.6 83.0747 4.88 84.9707 4.88C87.2267 4.88 88.8827 6.248 88.8827 8.816V17Z" fill="#F7F7F7"/>
</svg>
