<svg width="25" height="24" viewBox="0 0 25 24" fill="none" xmlns="http://www.w3.org/2000/svg">
<path d="M22.9871 5.76H18.3717C18.3717 4.23235 17.7882 2.76727 16.7495 1.68706C15.7109 0.606855 14.3021 0 12.8333 0C11.3644 0 9.95563 0.606855 8.91697 1.68706C7.87831 2.76727 7.29479 4.23235 7.29479 5.76H2.67941C2.18978 5.76 1.7202 5.96229 1.37398 6.32236C1.02776 6.68243 0.833252 7.17078 0.833252 7.68V22.08C0.833252 22.5892 1.02776 23.0776 1.37398 23.4376C1.7202 23.7977 2.18978 24 2.67941 24H22.9871C23.4767 24 23.9463 23.7977 24.2925 23.4376C24.6387 23.0776 24.8333 22.5892 24.8333 22.08V7.68C24.8333 7.17078 24.6387 6.68243 24.2925 6.32236C23.9463 5.96229 23.4767 5.76 22.9871 5.76ZM12.8333 1.92C13.8125 1.92 14.7517 2.32457 15.4441 3.04471C16.1365 3.76485 16.5256 4.74157 16.5256 5.76H9.14094C9.14094 4.74157 9.52995 3.76485 10.2224 3.04471C10.9148 2.32457 11.854 1.92 12.8333 1.92ZM22.9871 22.08H2.67941V7.68H7.29479V9.6C7.29479 9.85461 7.39204 10.0988 7.56515 10.2788C7.73826 10.4589 7.97305 10.56 8.21787 10.56C8.46268 10.56 8.69747 10.4589 8.87058 10.2788C9.04369 10.0988 9.14094 9.85461 9.14094 9.6V7.68H16.5256V9.6C16.5256 9.85461 16.6228 10.0988 16.7959 10.2788C16.969 10.4589 17.2038 10.56 17.4486 10.56C17.6935 10.56 17.9282 10.4589 18.1014 10.2788C18.2745 10.0988 18.3717 9.85461 18.3717 9.6V7.68H22.9871V22.08Z" fill="white"/>
</svg>
