<svg width="23" height="22" viewBox="0 0 23 22" fill="none" xmlns="http://www.w3.org/2000/svg">
<path fill-rule="evenodd" clip-rule="evenodd" d="M15.8333 8C15.8333 9.06087 15.4118 10.0783 14.6617 10.8284C13.9115 11.5786 12.8941 12 11.8333 12C10.7724 12 9.75497 11.5786 9.00482 10.8284C8.25468 10.0783 7.83325 9.06087 7.83325 8C7.83325 6.93913 8.25468 5.92172 9.00482 5.17157C9.75497 4.42143 10.7724 4 11.8333 4C12.8941 4 13.9115 4.42143 14.6617 5.17157C15.4118 5.92172 15.8333 6.93913 15.8333 8ZM13.8333 8C13.8333 8.53043 13.6225 9.03914 13.2475 9.41421C12.8724 9.78929 12.3637 10 11.8333 10C11.3028 10 10.7941 9.78929 10.419 9.41421C10.044 9.03914 9.83325 8.53043 9.83325 8C9.83325 7.46957 10.044 6.96086 10.419 6.58579C10.7941 6.21071 11.3028 6 11.8333 6C12.3637 6 12.8724 6.21071 13.2475 6.58579C13.6225 6.96086 13.8333 7.46957 13.8333 8Z" fill="white"/>
<path fill-rule="evenodd" clip-rule="evenodd" d="M11.8333 0C5.75825 0 0.833252 4.925 0.833252 11C0.833252 17.075 5.75825 22 11.8333 22C17.9083 22 22.8333 17.075 22.8333 11C22.8333 4.925 17.9083 0 11.8333 0ZM2.83325 11C2.83325 13.09 3.54625 15.014 4.74125 16.542C5.58048 15.4399 6.66315 14.5467 7.90469 13.9323C9.14622 13.3179 10.513 12.9988 11.8983 13C13.2656 12.9987 14.6152 13.3095 15.8442 13.9088C17.0732 14.508 18.1492 15.3799 18.9903 16.458C19.8567 15.3216 20.4401 13.9952 20.6921 12.5886C20.9442 11.182 20.8577 9.73553 20.4397 8.36898C20.0218 7.00243 19.2845 5.75505 18.2887 4.73004C17.293 3.70503 16.0675 2.93186 14.7136 2.47451C13.3598 2.01716 11.9165 1.88877 10.5031 2.09997C9.08977 2.31117 7.74704 2.85589 6.58602 3.68905C5.425 4.52222 4.47906 5.61987 3.82648 6.8912C3.1739 8.16252 2.83343 9.57097 2.83325 11ZM11.8333 20C9.7672 20.0031 7.76352 19.2923 6.16125 17.988C6.80618 17.0647 7.66459 16.3109 8.66344 15.7907C9.6623 15.2705 10.772 14.9992 11.8983 15C13.0104 14.9991 14.1067 15.2636 15.0962 15.7714C16.0856 16.2793 16.9396 17.0159 17.5873 17.92C15.9726 19.2667 13.9358 20.0029 11.8333 20Z" fill="white"/>
</svg>
