<svg width="22" height="21" viewBox="0 0 22 21" fill="none" xmlns="http://www.w3.org/2000/svg">
<path d="M16.2319 13.5431H15.2588L14.9139 13.2107C15.6837 12.3169 16.2463 11.2642 16.5614 10.1277C16.8766 8.99129 16.9365 7.79928 16.7369 6.637C16.158 3.21475 13.3003 0.481872 9.85142 0.0633236C8.63891 -0.0899813 7.40737 0.0359599 6.25105 0.43151C5.09473 0.82706 4.04428 1.48173 3.18007 2.34544C2.31586 3.20914 1.6608 4.25898 1.26501 5.41463C0.869233 6.57027 0.743218 7.80108 0.896613 9.01288C1.31541 12.4598 4.04989 15.3157 7.47415 15.8943C8.63711 16.0938 9.82981 16.0339 10.9669 15.719C12.104 15.404 13.1574 14.8417 14.0517 14.0724L14.3843 14.4171V15.3896L19.6192 20.6215C20.1242 21.1262 20.9495 21.1262 21.4545 20.6215C21.9595 20.1167 21.9595 19.292 21.4545 18.7872L16.2319 13.5431ZM8.84139 13.5431C5.77434 13.5431 3.29852 11.0687 3.29852 8.00344C3.29852 4.93819 5.77434 2.46382 8.84139 2.46382C11.9084 2.46382 14.3843 4.93819 14.3843 8.00344C14.3843 11.0687 11.9084 13.5431 8.84139 13.5431Z" fill="white"/>
</svg>
